
<svg width="124px" height="124px" viewBox="0 0 124 124" version="1.1" xmlns="http://www.w3.org/2000/svg" xmlns:xlink="http://www.w3.org/1999/xlink">
    <!-- Generator: Sketch 46.2 (44496) - http://www.bohemiancoding.com/sketch -->
    <desc>Created with Sketch.</desc>
    <defs></defs>
    <g id="Page-1" stroke="none" stroke-width="1" fill="none" fill-rule="evenodd">
        <g id="Artboard-2" transform="translate(-1.000000, -1.000000)">
            <g id="Group-2" transform="translate(3.000000, 3.000000)">
                <circle id="Oval" stroke="#003399" stroke-width="2.5" cx="60" cy="60" r="60"></circle>
                <path d="" id="Path-2" stroke="#979797"></path>
                <polyline id="Path-5" stroke="#FFCC00" stroke-width="1.5" transform="translate(76.500000, 43.250000) rotate(5.000000) translate(-76.500000, -43.250000) " points="72.5 31.5 72.5 55 76.5 50.5 80.5 55 80.5 31.5"></polyline>
                <path d="M94.2531127,36.4642136 C89.7010755,31.7824623 84.7319397,29.643804 79.3457053,30.0482387 C75.1719905,30.3616293 70.3109856,32.2238656 64.7626907,35.6349476 L64.7626895,35.6349457 C61.6637248,37.5401838 59.8438478,40.9780249 60.0105436,44.6119934 L61.7596686,82.742918 L61.7596713,82.7429179 C61.886209,85.5014394 64.2250116,87.6350838 66.9835331,87.5085461 C67.9938043,87.4622034 68.9662735,87.1105887 69.7725728,86.5001157 C78.8315995,79.6412593 86.9917794,79.4608464 94.2531127,85.9588769" id="Path-3" stroke="#003399" stroke-width="2.5" transform="translate(77.126556, 57.979438) scale(-1, 1) translate(-77.126556, -57.979438) "></path>
                <path d="M58.2531127,36.4642136 C53.7010755,31.7824623 48.7319397,29.643804 43.3457053,30.0482387 C39.1719905,30.3616293 34.3109856,32.2238656 28.7626907,35.6349476 L28.7626895,35.6349457 C25.6637248,37.5401838 23.8438478,40.9780249 24.0105436,44.6119934 L25.7596686,82.742918 L25.7596713,82.7429179 C25.886209,85.5014394 28.2250116,87.6350838 30.9835331,87.5085461 C31.9938043,87.4622034 32.9662735,87.1105887 33.7725728,86.5001157 C42.8315995,79.6412593 50.9917794,79.4608464 58.2531127,85.9588769" id="Path-3" stroke="#003399" stroke-width="2.5"></path>
                <path d="M59.25,37 L59.25,85" id="Line-3" stroke="#003399" stroke-width="2.5" stroke-linecap="square"></path>
            </g>
        </g>
    </g>
</svg>