
<svg width="124px" height="124px" viewBox="0 0 124 124" version="1.1" xmlns="http://www.w3.org/2000/svg" xmlns:xlink="http://www.w3.org/1999/xlink">
    <!-- Generator: Sketch 46.2 (44496) - http://www.bohemiancoding.com/sketch -->
    <desc>Created with Sketch.</desc>
    <defs>
        <rect id="path-1" x="0" y="14.8462326" width="14.1947319" height="33.118519"></rect>
        <path d="M0,47.9647516 L14.1947319,47.9647516 L14.1947319,50.9588769 L14.1947319,50.9588769 C14.1947319,53.7203006 11.9561556,55.9588769 9.19473185,55.9588769 L5,55.9588769 L5,55.9588769 C2.23857625,55.9588769 3.38176876e-16,53.7203006 0,50.9588769 L0,47.9647516 Z" id="path-2"></path>
    </defs>
    <g id="Page-1" stroke="none" stroke-width="1" fill="none" fill-rule="evenodd">
        <g id="Artboard-2">
            <g id="Group-4" transform="translate(2.000000, 2.000000)">
                <circle id="Oval" stroke="#003399" stroke-width="2.5" cx="60" cy="60" r="60"></circle>
                <rect id="fucj" stroke="#003399" stroke-width="2.5" x="28.25" y="26.25" width="55.5" height="66.5" rx="5"></rect>
                <path d="M36.5,48.25 L76.5,48.25" id="Line-4" stroke="#FFCC00" stroke-width="2.5" fill="#D8D8D8" stroke-linecap="square"></path>
                <path d="M36.5,58.25 L76.5,58.25" id="Line-4" stroke="#FFCC00" stroke-width="2.5" stroke-linecap="square"></path>
                <g id="Group" transform="translate(87.126515, 65.216617) scale(-1, 1) rotate(40.000000) translate(-87.126515, -65.216617) translate(79.626515, 37.216617)">
                    <polygon id="Triangle" stroke="#FFFFFF" stroke-width="2.5" fill="#003399" points="7.09736593 0 14.1947319 14.8462326 0 14.8462326"></polygon>
                    <g id="Rectangle-4">
                        <use fill="#003399" fill-rule="evenodd" xlink:href="#path-1"></use>
                        <rect stroke="#FFFFFF" stroke-width="1" x="0.5" y="15.3462326" width="13.1947319" height="32.118519"></rect>
                    </g>
                    <g id="Rectangle-4">
                        <use fill="#003399" fill-rule="evenodd" xlink:href="#path-2"></use>
                        <path stroke="#FFFFFF" stroke-width="1" d="M0.5,48.4647516 L0.5,50.9588769 C0.5,53.4441583 2.51471863,55.4588769 5,55.4588769 L9.19473185,55.4588769 C11.6800132,55.4588769 13.6947319,53.4441583 13.6947319,50.9588769 L13.6947319,48.4647516 L0.5,48.4647516 Z"></path>
                    </g>
                </g>
                <path d="M36.5,38.25 L76.5,38.25" id="Line-4" stroke="#FFCC00" stroke-width="2.5" stroke-linecap="square"></path>
                <path d="M36.5,68.25 L76.5,68.25" id="Line-4" stroke="#FFCC00" stroke-width="2.5" stroke-linecap="square"></path>
                <path d="M36.5,78.25 L76.5,78.25" id="Line-4" stroke="#FFCC00" stroke-width="2.5" stroke-linecap="square"></path>
            </g>
        </g>
    </g>
</svg>