

<svg width="80px" height="108px" viewBox="0 0 80 108" version="1.1" xmlns="http://www.w3.org/2000/svg" xmlns:xlink="http://www.w3.org/1999/xlink">
    <!-- Generator: Sketch 47.1 (45422) - http://www.bohemiancoding.com/sketch -->
    <desc>Created with Sketch.</desc>
    <defs>
        <rect id="path-1" x="13" y="21" width="53" height="70"></rect>
    </defs>
    <g id="Page-1" stroke="none" stroke-width="1" fill="none" fill-rule="evenodd">
        <g id="Artboard-2" transform="translate(-18.000000, -15.000000)">
            <g id="Group" transform="translate(18.000000, 15.000000)">
                <rect id="Rectangle" stroke="#919394" stroke-width="0.5" x="0.25" y="39.45" width="79.5" height="68.3" rx="8"></rect>
                <polygon id="Triangle" stroke="#979797" stroke-width="0.5" transform="translate(39.396040, 65.600000) scale(-1, -1) translate(-39.396040, -65.600000) " points="39.3960396 40 73.4554455 91.2 5.33663366 91.2"></polygon>
                <polygon id="Triangle" stroke="#979797" stroke-width="0.5" fill="#D8D8D8" transform="translate(40.168317, 20.000000) scale(-1, 1) translate(-40.168317, -20.000000) " points="40.1683168 0 75 40 5.33663366 40"></polygon>
                <g id="Rectangle-2">
                    <use fill="#D8D8D8" fill-rule="evenodd" xlink:href="#path-1"></use>
                    <rect stroke="#919394" stroke-width="1" x="13.5" y="21.5" width="52" height="69"></rect>
                </g>
                <path d="M21.5,32.5 L58.5,32.5" id="Line-2" stroke="#979797" stroke-linecap="square"></path>
                <path d="M21.5,42.5 L58.5,42.5" id="Line-2" stroke="#979797" stroke-linecap="square"></path>
                <path d="M21.5,47.5 L58.5,47.5" id="Line-2" stroke="#979797" stroke-linecap="square"></path>
                <path d="M21.5,57.5 L58.5,57.5" id="Line-2" stroke="#979797" stroke-linecap="square"></path>
                <path d="M21.5,62.5 L58.5,62.5" id="Line-2" stroke="#979797" stroke-linecap="square"></path>
                <path d="M21.5,67.5 L58.5,67.5" id="Line-2" stroke="#979797" stroke-linecap="square"></path>
                <path d="M21.5,72.5 L58.5,72.5" id="Line-2" stroke="#979797" stroke-linecap="square"></path>
                <path d="M21.5,77.5 L58.5,77.5" id="Line-2" stroke="#979797" stroke-linecap="square"></path>
                <path d="M21.5,82.5 L58.5,82.5" id="Line-2" stroke="#979797" stroke-linecap="square"></path>
                <path d="M21.5,87.5 L58.5,87.5" id="Line-2" stroke="#979797" stroke-linecap="square"></path>
                <path d="M21.5,52.5 L58.5,52.5" id="Line-2" stroke="#979797" stroke-linecap="square"></path>
                <path d="M21.5,37.5 L58.5,37.5" id="Line-2" stroke="#979797" stroke-linecap="square"></path>
                <polygon id="Triangle-2" fill="#FFFFFF" points="11.3081682 50.2270753 10.5 100.5 39.5 91.5"></polygon>
                <polygon id="Triangle-2" fill="#FFFFFF" transform="translate(53.500000, 75.136462) scale(-1, 1) translate(-53.500000, -75.136462) " points="39.8081682 50 39 100.272925 68 91.2729247"></polygon>
                <path d="M4.5,39.5 L39.5,91.5" id="Line" stroke="#979797" stroke-linecap="square"></path>
                <path d="M40.5866135,38.9080396 L73.7505186,92.097845" id="Line" stroke="#979797" stroke-linecap="square" transform="translate(57.086895, 65.351825) scale(-1, 1) rotate(-2.000000) translate(-57.086895, -65.351825) "></path>
            </g>
        </g>
    </g>
</svg>
