<?xml version="1.0" encoding="UTF-8"?>
<svg width="120px" height="120px" viewBox="0 0 120 120" version="1.1" xmlns="http://www.w3.org/2000/svg" xmlns:xlink="http://www.w3.org/1999/xlink">
    <!-- Generator: Sketch 50.2 (55047) - http://www.bohemiancoding.com/sketch -->
    <title>dfa</title>
    <desc>Created with Sketch.</desc>
    <defs></defs>
    <g id="dfa" stroke="none" stroke-width="1" fill="none" fill-rule="evenodd" opacity="0.969999969" stroke-linecap="round">
        <g id="Group-3" transform="translate(59.000000, 41.000000)" stroke="#979797" stroke-width="3">
            <path d="M34.8279257,10.7298262 C31.3177366,7.10578152 27.8273637,4.47856912 24.3568072,2.84818899 C19.1509724,0.402618798 17.6886522,-0.166525276 12.8746664,0.416737362 C8.06068074,1 0.0606807415,11.4021345 0.0606807415,15 C0.0606807415,18.5978655 -0.939319259,18 5.37266794,25.6956021 C11.6846551,33.3912042 17.5765645,37.6797657 18.5592885,38 C19.5420124,38.3202343 24.3568072,40 28.7305536,38.8844631 C34.6698234,37.3696349 36.8861058,32.1258677 37.8966411,27.9028721 C38.5703313,25.0875417 37.133119,21.9858728 33.5850041,18.5978655 L20.0029064,8.35019358" id="Path-2-Copy" transform="translate(19.030340, 19.733993) scale(-1, 1) translate(-19.030340, -19.733993) "></path>
        </g>
        <g id="Group-3" transform="translate(42.500000, 61.000000) scale(-1, 1) translate(-42.500000, -61.000000) translate(23.000000, 41.000000)" stroke="#64A0CB" stroke-width="3">
            <path d="M34.8279257,10.7298262 C31.3177366,7.10578152 27.8273637,4.47856912 24.3568072,2.84818899 C19.1509724,0.402618798 17.6886522,-0.166525276 12.8746664,0.416737362 C8.06068074,1 0.0606807415,11.4021345 0.0606807415,15 C0.0606807415,18.5978655 -0.939319259,18 5.37266794,25.6956021 C11.6846551,33.3912042 17.5765645,37.6797657 18.5592885,38 C19.5420124,38.3202343 24.3568072,40 28.7305536,38.8844631 C34.6698234,37.3696349 36.8861058,32.1258677 37.8966411,27.9028721 C38.5703313,25.0875417 37.133119,21.9858728 33.5850041,18.5978655 L20.0029064,8.35019358" id="Path-2-Copy" transform="translate(19.030340, 19.733993) scale(-1, 1) translate(-19.030340, -19.733993) "></path>
        </g>
    </g>
</svg>