<?xml version="1.0" encoding="UTF-8"?>
<svg width="120px" height="120px" viewBox="0 0 120 120" version="1.1" xmlns="http://www.w3.org/2000/svg" xmlns:xlink="http://www.w3.org/1999/xlink">
    <!-- Generator: Sketch 50.2 (55047) - http://www.bohemiancoding.com/sketch -->
    <title>dog</title>
    <desc>Created with Sketch.</desc>
    <defs></defs>
    <g id="dog" stroke="none" stroke-width="1" fill="none" fill-rule="evenodd">
        <g id="Group" transform="translate(26.000000, 31.000000)" stroke="#979797" stroke-linecap="round" stroke-width="3">
            <path d="M0.5,19.5 L13.5,1.5" id="Line"></path>
            <path d="M56.5,19.5 L69.5,0.5" id="Line" transform="translate(63.000000, 10.000000) scale(-1, 1) translate(-63.000000, -10.000000) "></path>
        </g>
        <path d="M45,38 C41.6666667,43.3333333 39.3333333,47.3333333 38,50 C36,54 36,69 38,75 C40,81 41,84 45,88 C47.6666667,90.6666667 51.3333333,90.6666667 56,88 L61,84 L65,88 C69,90.6666667 72.6666667,91 76,89 C81,86 81.2496509,84 84,75 C86.7503491,66 84,53 83,50 C82.3333333,48 80,44 76,38" id="Path-8" stroke="#979797" stroke-width="3" stroke-linecap="round"></path>
        <path d="M55.2686149,70.553316 C55.2756449,70.5861955 55.2925776,70.6396864 55.3215144,70.7091346 C55.3583431,70.7975235 55.4071972,70.894909 55.4671845,71 C55.3228504,71 55.1678932,71 55,71 C54.9837301,71 55.1198429,70.9381975 55.2188858,70.7294619 C55.258881,70.6451709 55.2686134,70.5788912 55.2658712,70.5400922 Z M55.4671845,71 C55.7420692,71.4815667 56.2507333,72.1249345 56.9073443,72.8058644 C58.593309,74.5542723 60.7102675,76 61.5,76 C62.3077125,76 64.5347949,74.5279058 66.2560986,72.795226 C66.937189,72.1096343 67.4521831,71.4679838 67.7127737,71 C65.435649,71 65.328059,71 62.56,71 C61.2945455,71 61.2945455,71 60.0562373,71 C57.4007448,71 57.1961435,71 55.4671845,71 Z" id="Path-9" stroke="#64A0CB" stroke-width="2"></path>
    </g>
</svg>