<?xml version="1.0" encoding="UTF-8"?>
<svg width="120px" height="120px" viewBox="0 0 120 120" version="1.1" xmlns="http://www.w3.org/2000/svg" xmlns:xlink="http://www.w3.org/1999/xlink">
    <!-- Generator: Sketch 50.2 (55047) - http://www.bohemiancoding.com/sketch -->
    <title>dog</title>
    <desc>Created with Sketch.</desc>
    <defs></defs>
    <g id="dog" stroke="none" stroke-width="1" fill="none" fill-rule="evenodd" stroke-linecap="square">
        <g id="Group" transform="translate(26.000000, 31.000000)" stroke-width="3">
            <path d="M11.5,19.5 L11.5,43.5" id="Line-5" stroke="#979797"></path>
            <path d="M58.5,20.5 L58.5,44.5" id="Line-5" stroke="#979797"></path>
            <path d="M29.5,57 L21,57" id="Line-5" stroke="#979797"></path>
            <path d="M48.5,57 L40,57" id="Line-5" stroke="#979797"></path>
            <path d="M40.5,39 L28.5,39" id="Line-5" stroke="#64A0C9"></path>
            <path d="M50.5,56.5 L57.5,45.5" id="Line" stroke="#979797"></path>
            <path d="M11.5,18.5 L18.5,7.5" id="Line" stroke="#979797"></path>
            <path d="M0.5,19.5 L13.5,1.5" id="Line" stroke="#979797"></path>
            <path d="M12.5,56.5 L19.5,45.5" id="Line" stroke="#979797" transform="translate(16.000000, 51.000000) scale(-1, 1) translate(-16.000000, -51.000000) "></path>
            <path d="M51.5,18.5 L58.5,7.5" id="Line" stroke="#979797" transform="translate(55.000000, 13.000000) scale(-1, 1) translate(-55.000000, -13.000000) "></path>
            <path d="M29.5,45.5 L34.5,40.5" id="Line" stroke="#64A0C9" transform="translate(32.000000, 43.000000) scale(-1, 1) translate(-32.000000, -43.000000) "></path>
            <path d="M34.5,56.5 L38.5,52.5" id="Line" stroke="#979797" transform="translate(36.500000, 54.500000) scale(-1, 1) translate(-36.500000, -54.500000) "></path>
            <path d="M35.5,44.5 L39.5,40.5" id="Line" stroke="#64A0C9"></path>
            <path d="M31.5,56.5 L35.5,52.5" id="Line" stroke="#979797"></path>
            <path d="M56.5,19.5 L69.5,0.5" id="Line" stroke="#979797" transform="translate(63.000000, 10.000000) scale(-1, 1) translate(-63.000000, -10.000000) "></path>
        </g>
    </g>
</svg>